<svg xmlns="http://www.w3.org/2000/svg" viewBox="0 0 1284 327"><g fill="none" stroke-width="2"><path stroke="#bdbec0" d="M124.46 5.75q-1.17-.19-.92-1.04a.93.57-66.5 0 0-.12-.84q-.62-.53-1.46-.12" vector-effect="non-scaling-stroke"/><path stroke="#a2a5aa" d="M97.75 13.46q-1.91-.9-1.5-3.17" vector-effect="non-scaling-stroke"/><path stroke="#aaacb0" d="M86.25 24.54q-1.06 2.24-.03 4.17m-3.72 3.75q-2.29.68-2.75 3.08" vector-effect="non-scaling-stroke"/><path stroke="#aa4f5d" d="M60.71 40.56q-5.38-.96-7.75-6.06" vector-effect="non-scaling-stroke"/><path stroke="#d8d8d8" d="M137.11 36.78q-1.02.04-1.95-.36a.88.63-48.2 0 0-.77.17l-2.87 2.22" vector-effect="non-scaling-stroke"/><path stroke="#cf6b72" d="m113 51.54-8-1.5" vector-effect="non-scaling-stroke"/><path stroke="#c5c6c6" d="m122.75 35.21-1.32-1.07q-.57-.45-.13-.61 1.11-.39.2-1.02a.69.39 34.8 0 1-.34-.71l.84-1.26" vector-effect="non-scaling-stroke"/><path stroke="#c6626a" d="m100 49.29-2-.25" vector-effect="non-scaling-stroke"/><path stroke="#bb606c" d="m98 49.04-9-1.58" vector-effect="non-scaling-stroke"/><path stroke="#c60518" d="M98 49.04c-3.52.04-3.88 2.88-6.71 3.12q-.27.02-.93.25l-3.8 1.33" vector-effect="non-scaling-stroke"/><path stroke="#d10815" d="M85.71 66.25q-1.87-.73-1.85.44a1.56 1.02 71.2 0 1-.23.89l-1.42 1.92" vector-effect="non-scaling-stroke"/><path stroke="#d9757c" d="M147.77 56.95q-4.02-.12-7.74-1.21" vector-effect="non-scaling-stroke"/><path stroke="#c60518" d="M179.54 62.75c-.84 2.58 2.29 4.78 3.58 6.7a1.6 1.16-.7 0 0 .77.54q1.89.62 1.9 2.76" vector-effect="non-scaling-stroke"/><path stroke="#db0a13" d="M167.75 83.21q.69-1.54-.32-1.4a1.74.66-16.7 0 1-.96-.07q-1.69-.79-2.51-2.49m-28.47-16.72q.18-1.94-1.26-1.11a.87.85 44.4 0 1-.83 0q-1.13-.6-1.69.58m-1.46.54-1.54-1.11a1.08.6 25.2 0 1-.48-.67q-.2-3.45-2.77-.26M98.23 75.85l-4.72 1.48" vector-effect="non-scaling-stroke"/><path stroke="#ee1a19" d="M119.55 89.1q-2.33 1.48-7.55 2.41-2.05.36-3.25 3.2m-5.79 2.79-4.92 4.5M147 96.71q-1.69-2.38-5-2.96-3.68-.64-6.78-.15" vector-effect="non-scaling-stroke"/><path stroke="#ae021b" d="M226.23 75.53q1.8 3.59 2.47 7.5a1.06.85-31.1 0 1-.3.82q-.45.47-.65 1.11" vector-effect="non-scaling-stroke"/><path stroke="#d10815" d="m189.96 77.5-.79-2.81a1.54.77 85.4 0 0-.49-.81q-1-.67-2.14-.13" vector-effect="non-scaling-stroke"/><path stroke="#f7342d" d="M158.42 141.26q.81-2.03.92-4.28.12-2.42-.71-4.8a.34.31-29.7 0 0-.52-.11q-.56.45-1.11-.11m4-6.17c1.83-.7.04-2.64-.06-4.2a.86.8 12.5 0 0-.47-.68q-1.44-.73-.51-2.66M137 115.54l-5-.74a.51.41-84.1 0 1-.34-.52q.03-.36-.37-.53m-1.5-4.25q-.95-1.22-5.59-1.76a1.04.68 19.1 0 0-.76.19l-1.27 1.25a1.03.18-46.2 0 1-.74.54q-.41-.08-.43-.68m-17.04 10.46-.61-2.25a.41.27-22.4 0 0-.53-.1l-2.33 1.14a.71.71 0 0 0-.39.62q-.06 1.58-.81 2.84" vector-effect="non-scaling-stroke"/><path stroke="#db0a13" d="M193 104.2q.31 2.6 1.91 4.44a.9.78 36.4 0 1 .19.84l-.35.98" vector-effect="non-scaling-stroke"/><path stroke="#e10b12" d="m190 124.46.98 2.21a1.38.52 72.8 0 0 .59.76q.51.22.54.62.09.99-.82-.22-1.07-1.43-1.21.87-.17 2.97-1.44 5.84" vector-effect="non-scaling-stroke"/><path stroke="#ee1a19" d="M171.04 124.54q-.55-7.73-5.58-14.51-1.18-1.58-1.21-3.99" vector-effect="non-scaling-stroke"/><path stroke="#ae021b" d="M244.79 141.75q1.24-3.16.76-6.58m-3.01-29.42q-1.17-2.55-3.54-4.04" vector-effect="non-scaling-stroke"/><path stroke="#b9041a" d="M222.25 100.21q.13-.78-.09-1.53a1 .01 40.3 0 0-.74-.64q-1.04-.87-.1-2a.41.36 40.7 0 0-.07-.53l-.25-.22" vector-effect="non-scaling-stroke"/><path stroke="#f7342d" d="m134.79 165.5-4.04-.29m-3.04.79q-2.18 2.45-4.42.25m-15.5-2.75q-.01-.94-.65-.79a1 .2-15.1 0 1-.92.06l-1.28-1.48a.51.23 52.2 0 0-.43-.23l-1.01.4" vector-effect="non-scaling-stroke"/><path stroke="#f52c27" d="M102.04 159.75q-1.61-1.85-2.08-4.25m-2.88-6.24q-2.11.24-3.21-1.77a1.08.74-53.1 0 1 .04-.87q.39-.83-.41-1.16" vector-effect="non-scaling-stroke"/><path stroke="#cb0616" d="M221.06 140.23q1.68 2.14.95 4.9a.52.5 17.2 0 0 .34.61q1.33.47.2 1.58" vector-effect="non-scaling-stroke"/><path stroke="#e57c81" d="M179.25 159.54q-3.83.72-7.29 2.46" vector-effect="non-scaling-stroke"/><path stroke="#e8181a" d="M162.13 164.68q3.11-4.07 3.35-8.99" vector-effect="non-scaling-stroke"/><path stroke="#cb0616" d="M223.24 131.73q-1.39-2.51-1.82-5.53a.89.79-23.9 0 1 .35-.77q1.55-1.16.02-1.68" vector-effect="non-scaling-stroke"/><path stroke="#f28b88" d="M144.74 170.78q-2.9.25-5.24 1.93" vector-effect="non-scaling-stroke"/><path stroke="#eb8581" d="m138.25 172.79-5.99 2.58" vector-effect="non-scaling-stroke"/><path stroke="#ee1a19" d="m120.25 179.54-5.71-2.22a1.77.88 7.6 0 1-.78-.53l-1.3-1.79" vector-effect="non-scaling-stroke"/><path stroke="#e3171c" d="M102 169.54q-2.47-.21-3.73-2.64" vector-effect="non-scaling-stroke"/><path stroke="#e11016" d="M82.25 173.79 78.96 171" vector-effect="non-scaling-stroke"/><path stroke="#e8e9e8" d="M181.21 217.5q-3.57.02-5.45-1.56-.91-.77-1.23-.23-.24.4-.4.05-.22-.48-.17-1.01M157.54 207q-1.33-1.53-1.79-3.46" vector-effect="non-scaling-stroke"/><path stroke="#de7273" d="m98.75 188.29-8 3.25" vector-effect="non-scaling-stroke"/><path stroke="#d8d8d8" d="M173.18 263.1q-4.39-.87-8.18.36m-6-14.92q-.39-.98-1.29-1.41a.92.72-50.3 0 0-.9.2q-.23.21-.58-.07-.39-.32.28-.48.58-.15.24-.74M124.71 237q-.56.45-1.16.4c-1.21-.1-2.86-2.28-5.3-2.44m-5.96-5.21-1.6-.12a.92.78 77.1 0 1-.7-.52q-1.39-2.89-4.49-3.9" vector-effect="non-scaling-stroke"/><path stroke="#e47779" d="M100.46 187.75q2.45-1.59 5.29-2.21" vector-effect="non-scaling-stroke"/><path stroke="#db0a13" d="M85.25 186.29q1.16.25 1.57 1.31a1.32.71 78.9 0 0 .6.73q2.25.85 1.21 3.09-.23.5.33.29.89-.33 1.79-.17" vector-effect="non-scaling-stroke"/><path stroke="#d36f76" d="m90.75 191.54-.29.46" vector-effect="non-scaling-stroke"/><path stroke="#c6626a" d="M62.71 205.25q-4.62 1.62-8.75 4.25" vector-effect="non-scaling-stroke"/><path stroke="#b9041a" d="m46.79 213.25-3.29-3.79" vector-effect="non-scaling-stroke"/><path stroke="#c9caca" d="m84.5 220.29-2.18 1.83a.36.33-34.6 0 1-.54-.07q-1.54-2.89-4.57-4.3" vector-effect="non-scaling-stroke"/><path stroke="#97495a" d="m33.22 221.22-8.72 4.49" vector-effect="non-scaling-stroke"/><path stroke="#c5c6c6" d="m86.5 231.54 5.04 5.71m11.25 27.5q4.92 1.91 7.85 6.17m49.15 9.58q.48.61.15 1.36a.79.22 46.4 0 0 .34.63q.38.41.21 1.01a.6.23 13.4 0 0 .54.37l3.06.72a.66.37 16.8 0 0 .65-.14q.46-.84.97-.2" vector-effect="non-scaling-stroke"/><path stroke="#adb0b3" d="M152.46 314.25q-2.57 1.54-3.75-1.25" vector-effect="non-scaling-stroke"/><path stroke="#b4b6b8" d="M133.79 300.25q-1.21-1.67-3.2-2.32a.27.22-63.2 0 1-.09-.38q.15-.22 0-.51m-30-14.75q-2.42-2.65-6.16-3.36" vector-effect="non-scaling-stroke"/><path stroke="#a4a7ab" d="M75.79 282.5q-2.2-1.74-3.13-4.54" vector-effect="non-scaling-stroke"/><path stroke="#adb0b3" d="M57.24 258.64q-1.74-.75-3.27-1.57-.83-.45-1.51-1.07m-3.21-7.29L45 244.54" vector-effect="non-scaling-stroke"/><path stroke="#969a9f" d="M26 250.04q.45 2.14 2.25 3.42m14.5 16.25 3.5 2.08" vector-effect="non-scaling-stroke"/><path stroke="#9ca0a5" d="m87.21 290.25 4.34 2.27a1.32.96 43.2 0 0 .94.12l1.01-.35m10 12.75q-1.48 1.25.06 2.9.73.17.23.81" vector-effect="non-scaling-stroke"/><path stroke="#969a9f" d="M143.79 322.25q1.49-.03 1.91 2.92" vector-effect="non-scaling-stroke"/></g><path fill="#acaeb2" d="M124.46 5.75q-1.17-.19-.92-1.04a.93.57-66.5 0 0-.12-.84q-.62-.53-1.46-.12-12.32 4.3-24.21 9.71-1.91-.9-1.5-3.17L122.51.73a.52.5 72.3 0 1 .66.36l1.29 4.66Z"/><path fill="#cecece" d="M124.46 5.75q5.04 15.96 12.65 31.03-1.02.04-1.95-.36a.88.63-48.2 0 0-.77.17l-2.87 2.22Q122.69 45.7 113 51.54l-8-1.5q11.72-7.53 24.3-13.5 1.3-.62-.12-.75l-6.43-.58-1.32-1.07q-.57-.45-.13-.61 1.11-.39.2-1.02a.69.39 34.8 0 1-.34-.71l.84-1.26 5.95 1.06q.49.09.31-.39-4.92-13.32-6.3-27.46.84-.41 1.46.12a.93.57-66.5 0 1 .12.84q-.25.85.92 1.04Z"/><path fill="#989ba1" d="M96.25 10.29q-.41 2.27 1.5 3.17l-18.44 9.37q-.97.49.13.66l6.81 1.05q-1.06 2.24-.03 4.17l-10.18-2.76q-.47-.12-.11.21l6.57 6.3q-2.29.68-2.75 3.08l-6.64-8.03a.62.59-33.9 0 0-.76-.13q-7.93 4.5-11.64 13.18-5.38-.96-7.75-6.06 3.39-4.47 8.85-7.69 17.2-10.12 34.44-16.52Z"/><path fill="#bbbdbe" d="M86.25 24.54q18.01 2.17 35.75 6l-.84 1.26a.69.39 34.8 0 0 .34.71q.91.63-.2 1.02-.44.16.13.61l1.32 1.07q-18.41-2.23-36.53-6.5-1.03-1.93.03-4.17Zm-3.75 7.92L100 49.29l-2-.25-9-1.58-9.25-11.92q.46-2.4 2.75-3.08Z"/><path fill="#bb0319" d="M52.96 34.5q2.37 5.1 7.75 6.06 13.84 4.83 28.29 6.9l9 1.58c-3.52.04-3.88 2.88-6.71 3.12q-.27.02-.93.25l-3.8 1.33-18.9-5.94q-1.58-.49-.25.52 10.3 7.81 18.3 17.93-1.87-.73-1.85.44a1.56 1.02 71.2 0 1-.23.89l-1.42 1.92C73.24 59.34 62.16 50.01 53.7 40.82q-2.55-2.78-.74-6.32Z"/><path fill="#e1e2e1" d="m137.11 36.78 10.66 20.17q-4.02-.12-7.74-1.21l-8.51-16.93 2.87-2.22a.88.63-48.2 0 1 .77-.17q.93.4 1.95.36Z"/><path fill="#d00716" d="m98 49.04 2 .25 5 .75 8 1.5 27.03 4.2q3.72 1.09 7.74 1.21l31.77 5.8c-.84 2.58 2.29 4.78 3.58 6.7a1.6 1.16-.7 0 0 .77.54q1.89.62 1.9 2.76l-18.04 10.46q.69-1.54-.32-1.4a1.74.66-16.7 0 1-.96-.07q-1.69-.79-2.51-2.49 8.05-4.48 16-7.65 1.7-.68-.09-1.07-22.1-4.84-44.38-8 .18-1.94-1.26-1.11a.87.85 44.4 0 1-.83 0q-1.13-.6-1.69.58-.86-.26-1.46.54l-1.54-1.11a1.08.6 25.2 0 1-.48-.67q-.2-3.45-2.77-.26-17.74-2.68-35.24-6.7-.62-.14-.35.44 4.85 10.3 8.36 21.61l-4.72 1.48-6.95-23.59 3.8-1.33q.66-.23.93-.25c2.83-.24 3.19-3.08 6.71-3.12Z"/><path d="M603 79.5h-5.25a.75.5 0 0 1-.75-.5v-4.5a.75.5 0 0 1 .75-.5H603a.63.42-89.4 0 0 .42-.62c.05-3.96-.25-8.51 1.4-11.95q3.99-8.32 14.56-6.94a1.57 1.55 3.3 0 1 1.36 1.5l.08 4.08a.47.41-86.7 0 1-.48.49q-1.22-.24-2.4-.5c-8.52-1.91-8.26 8.27-7.85 13.35a.66.64-2.3 0 0 .66.59h7.75a.75.5 0 0 1 .75.5v4.25a.78.74-89.6 0 1-.75.78l-7.94-.11a.55.39.7 0 0-.56.39v32.69a.75.5-90 0 1-.5.75H604a.75.5 90 0 1-.5-.75V80a.5.5 0 0 0-.5-.5Z"/><circle cx="404.63" cy="60.05" r="4.22"/><path d="M360 102.11q.29.64.46.05.73-2.49 1.81-4.9 8.57-19.21 17.21-38.39a1.04.73-73.8 0 1 .77-.62h7.25a.75.5 90 0 1 .5.75v53.5a.75.5-90 0 1-.5.75H382a.75.52 90 0 1-.52-.75l.07-43.5q0-.52-.22-.03-9.43 21.38-18.99 42.67-1.25 2.76-3.78 1.22a1.84 1.48 88.7 0 1-.66-.78l-19-42.5q-.4-.88-.4-.02v42.94a.75.5-90 0 1-.5.75h-5.5a.75.5 90 0 1-.5-.75V58.75a.5.5 0 0 1 .5-.5h7.75a.84.83 78 0 1 .76.5L360 102.11Z"/><path fill="#e60c10" d="M130.25 62.54q-13.37 9.86-25.09 21.27a.73.72 30.8 0 0 .32 1.22l14.07 4.07q-2.33 1.48-7.55 2.41-2.05.36-3.25 3.2l-5.94-1.1a.38.35 89.6 0 0-.4.44l.55 3.45-4.92 4.5q-3.51-18.43-15.83-32.5l1.42-1.92a1.56 1.02 71.2 0 0 .23-.89q-.02-1.17 1.85-.44l7.8 11.08 4.72-1.48 1.49 4.47a.43.34-34.6 0 0 .66.04q11.57-11.33 26.01-18.77a.39.38 53.2 0 0 .08-.62q-.45-.41-1.01-.47 2.57-3.19 2.77.26a1.08.6 25.2 0 0 .48.67l1.54 1.11Zm5.24-.01q5.97 14.59 5.59 29.91-.01.5.39.21 10.78-7.48 22.49-13.4.82 1.7 2.51 2.49a1.74.66-16.7 0 0 .96.07q1.01-.14.32 1.4L147 96.71q-1.69-2.38-5-2.96-3.68-.64-6.78-.15 1.48-16.32-3.51-31.6.56-1.18 1.69-.58a.87.85 44.4 0 0 .83 0q1.44-.83 1.26 1.11Z"/><path d="M635.93 79.46a.42.24 1 0 0-.43.23q.01 9.44-.01 18.98c-.01 6.49 1.06 12.22 9.43 8.8a.44.35-13.4 0 1 .59.28l-.03 4.68a.95.45-17.2 0 1-.64.59c-7.42 2.91-15.58-.03-15.74-8.96q-.21-11.9-.06-23.74a.81.79-89.6 0 0-.79-.82H623a.75.5 0 0 1-.75-.5v-4.5a.75.5 0 0 1 .75-.5h5.5a.5.5 0 0 0 .5-.5V65a.91.61 84.5 0 1 .44-.82L635 62.5a.49.39 83.5 0 1 .5.5v10.25a.75.75 0 0 0 .75.75h8.5a.75.5 0 0 1 .75.5v4.25a.77.75-90 0 1-.75.77l-8.82-.06Z"/><path fill="#bb0319" d="M179.54 62.75q23.9 4.48 46.69 12.78 1.8 3.59 2.47 7.5a1.06.85-31.1 0 1-.3.82q-.45.47-.65 1.11-17.86-7.07-36.52-11.59a.55.45 12.4 0 0-.66.34l-.61 3.79-.79-2.81a1.54.77 85.4 0 0-.49-.81q-1-.67-2.14-.13.22-1.19-.75-1-.01-2.14-1.9-2.76a1.6 1.16-.7 0 1-.77-.54c-1.29-1.92-4.42-4.12-3.58-6.7Z"/><path d="M672.27 76.68a11.13 11.13 0 0 1-11.13 11.13 11.13 11.13 0 0 1-11.13-11.13 11.13 11.13 0 0 1 11.13-11.13 11.13 11.13 0 0 1 11.13 11.13Zm-1.55.04a9.58 9.58 0 0 0-9.58-9.58 9.58 9.58 0 0 0-9.58 9.58 9.58 9.58 0 0 0 9.58 9.58 9.58 9.58 0 0 0 9.58-9.58Z"/><path d="M659 78.5v4.25a.97.32 89.8 0 1-.31.96l-1.44.05a.75.48 89.3 0 1-.5-.76V70.25a.68.59 86.1 0 1 .5-.66q3.71-.55 7.22.57a1.48.85 71.8 0 1 .7.63q2.3 3.9-1.57 6.1a.58.52 61.1 0 0-.17.76l2.87 5.09a.76.52-29.7 0 1-.41.83c-3.16 1.84-3.34-7.01-6.39-5.75a.82.7-13.1 0 0-.5.68Zm4.35-3.87a1.75 1.66-56.7 0 0-.45-2.5q-5.01-2.9-3.78 2.81a.99.93-88.3 0 0 .65.73q2.32.68 3.58-1.04ZM421.89 79.9c5.56-7.36 16.27-8.4 24.28-5.25a.88.5 16.2 0 1 .58.6v5.5a.54.51 15.9 0 1-.81.42c-14.03-8.08-25.39 4.2-21.32 18.13 2.88 9.86 13.04 11.34 21.33 6.29q.8-.49.8.41v5a.94.53-19.3 0 1-.56.64c-22.1 10.9-37.55-14.24-24.3-31.74Zm66.86-4.52c8.95-5.07 22.2-2.72 26.92 7.46 5.72 12.34.18 30.15-15.49 31.23-10.67.73-18.69-4.74-20.69-15.56-1.7-9.24.91-18.39 9.26-23.13Zm9.5 3.2c-12.6.16-15.57 16.24-9.91 24.73 3.89 5.83 15.36 7.51 19.65 1.15 5.72-8.49 4.33-26.05-9.74-25.88Zm27.14 1.59c3.44-7.63 13.55-8.65 20.59-5.72a1.05.37 19.9 0 1 .75.61l.03 5.69q0 .6-.69.17c-3.88-2.45-13.9-4.64-14.84 2.47-.73 5.54 9.38 8.45 12.27 10.1 7.9 4.48 6.22 16.03-1.76 19.24q-8.06 3.24-16.6-.69a.95.42 20.2 0 1-.62-.6l-.01-6.12q-.01-.56.7-.06c3.71 2.64 15.11 6.17 16.62-.85 1.17-5.43-5.82-7.51-10.68-9.77-5.46-2.54-8.29-8.87-5.76-14.47Zm30.12 6.57c4.77-18.45 33.01-18.97 37.03.46 7.55 36.52-46.27 35.33-37.03-.46Zm8.68-3.3c-5.74 9.21-3.51 25.09 10.06 25.01 14.54-.09 16.33-22.76 5.9-28.45-4.86-2.64-12.71-1.78-15.96 3.44Z"/><path fill="#e60c10" d="M189.96 77.5q-2.45 16.14-9.72 30.76-.51 1.04.58.62L193 104.2q.31 2.6 1.91 4.44a.9.78 36.4 0 1 .19.84l-.35.98-13.53 5.7q-.63.27-.06.67 4.77 3.42 8.84 7.63l.98 2.21a1.38.52 72.8 0 0 .59.76q.51.22.54.62.09.99-.82-.22-1.07-1.43-1.21.87-.17 2.97-1.44 5.84-7.53-6.03-15.71-11.27a.84.72 41.6 0 0-.86-.02q-.69.47-1.03 1.29-.55-7.73-5.58-14.51-1.18-1.58-1.21-3.99l6.54 3.66a.66.64 30 0 0 .88-.22c6.6-10.88 12.54-23.15 14.87-35.73q1.14-.54 2.14.13a1.54.77 85.4 0 1 .49.81l.79 2.81Z"/><path d="M462.67 80.29q.26.01.38-.24 3.87-8.17 12.77-6.52a.81.39 8.7 0 1 .68.47v5.75a.48.41 13.2 0 1-.66.34c-9.34-4-13.35 5.42-13.33 12.89q.02 9.81-.07 19.62a.65.44-90 0 1-.44.65h-5.5a.75.5 90 0 1-.5-.75V74.75a.75.5-90 0 1 .5-.75h5.25a.8.49.3 0 1 .8.5l-.17 5.26a.52.31-87.9 0 0 .29.53Z"/><rect width="6.5" height="39.26" x="401.25" y="74" rx=".59"/><path fill="#a1001d" d="M226.23 75.53c29.63 10.4 54.99 27.86 71.05 55.27a.35.34 69.8 0 1-.23.52q-26.35 4.36-52.26 10.43 1.24-3.16.76-6.58 22.63-4.22 45.7-6.08.56-.04.15-.5-18.31-20.51-42.4-33.8a.58.5 28.7 0 0-.76.16l-5.7 10.8q-1.17-2.55-3.54-4.04l4.96-7.52q.55-.83-.38-.54l-21.33 6.56q.13-.78-.09-1.53a1 .01 40.3 0 0-.74-.64q-1.04-.87-.1-2a.41.36 40.7 0 0-.07-.53l-.25-.22 18.9-4.71q.81-.2.05-.52l-12.2-5.1q.2-.64.65-1.11a1.06.85-31.1 0 0 .3-.82q-.67-3.91-2.47-7.5Z"/><path fill="#f52721" d="m119.55 89.1 15.67 4.5q3.1-.49 6.78.15 3.31.58 5 2.96-.55.21-.63.61a.83.5 21.1 0 0 .53.68l17.35 8.04q.03 2.41 1.21 3.99 5.03 6.78 5.58 14.51-5.75 8.78-12.62 16.72.81-2.03.92-4.28.12-2.42-.71-4.8a.34.31-29.7 0 0-.52-.11q-.56.45-1.11-.11l4-6.17c1.83-.7.04-2.64-.06-4.2a.86.8 12.5 0 0-.47-.68q-1.44-.73-.51-2.66 1.25-.31 1.78-1.18a.64.46-60.7 0 0-.09-.81l-21.34-10.63a.7.58-74.3 0 0-.85.59q-.71 4.82-2.46 9.32l-5-.74a.51.41-84.1 0 1-.34-.52q.03-.36-.37-.53l1.73-6.01q.31-1.08-.6-.35l-2.63 2.11q-.95-1.22-5.59-1.76a1.04.68 19.1 0 0-.76.19l-1.27 1.25a1.03.18-46.2 0 1-.74.54q-.41-.08-.43-.68l8.44-7.13q.49-.42-.1-.61l-20.59-6.59q1.2-2.84 3.25-3.2 5.22-.93 7.55-2.41Z"/><path fill="#d00716" d="m221 95.29.25.22a.41.36 40.7 0 1 .07.53q-.94 1.13.1 2a1 .01 40.3 0 1 .74.64q.22.75.09 1.53l-27.5 10.25.35-.98a.9.78 36.4 0 0-.19-.84q-1.6-1.84-1.91-4.44 13.71-5.14 28-8.91Z"/><path fill="#f52721" d="M102.96 97.5q1.44 10.95 1 22l-.61-2.25a.41.27-22.4 0 0-.53-.1l-2.33 1.14a.71.71 0 0 0-.39.62q-.06 1.58-.81 2.84.27-9.93-1.25-19.75l4.92-4.5Z"/><path fill="#bb0319" d="M239 101.71q2.37 1.49 3.54 4.04-7.71 14.4-19.3 25.98-1.39-2.51-1.82-5.53a.89.79-23.9 0 1 .35-.77q1.55-1.16.02-1.68L239 101.71Z"/><path fill="#f84038" d="M129.79 109.5q-12.74 10.15-24.74 21.44a.52.41-51.4 0 0 0 .77q7.51 3.53 13.02 9.72a.46.35-51.8 0 0 .63-.16q8.11-12.93 12.59-27.52.4.17.37.53a.51.41-84.1 0 0 .34.52l5 .74q-2.86 10.06-8.01 19.2-.58 1.02.41.39 14.73-9.23 30.56-16.88-.93 1.93.51 2.66a.86.8 12.5 0 1 .47.68c.1 1.56 1.89 3.5.06 4.2q-19.69 9.52-38.33 20.95a.53.53 0 0 0-.19.7q4.55 8.71 5.23 18.56-2.18 2.45-4.42.25-1.81-6.76-6.11-12.68a.44.42-42.8 0 0-.67-.01l-8.72 9.94q-.01-.94-.65-.79a1 .2-15.1 0 1-.92.06l-1.28-1.48a.51.23 52.2 0 0-.43-.23l-1.01.4q10.09-10.37-1.46-1.71-1.61-1.85-2.08-4.25l10.62-8.01a.63.41-42.8 0 0 .21-.84l-9.75-6.25a.72.42-65.7 0 0-.74.52l-3.22 8.34q-2.11.24-3.21-1.77a1.08.74-53.1 0 1 .04-.87q.39-.83-.41-1.16 4.42-11.48 5.79-23.71.75-1.26.81-2.84a.71.71 0 0 1 .39-.62l2.33-1.14a.41.27-22.4 0 1 .53.1l.61 2.25-.6 5.33q-.08.69.43.22L121 109.04q.02.6.43.68a1.03.18-46.2 0 0 .74-.54l1.27-1.25a1.04.68 19.1 0 1 .76-.19q4.64.54 5.59 1.76Z"/><path fill="#db0913" d="M221.79 123.75q1.53.52-.02 1.68a.89.79-23.9 0 0-.35.77q.43 3.02 1.82 5.53l-9.42 9.17q-1.22 1.18.41.82l6.83-1.49q1.68 2.14.95 4.9a.52.5 17.2 0 0 .34.61q1.33.47.2 1.58l-43.3 12.22q-3.83.72-7.29 2.46l-9.83 2.68q3.11-4.07 3.35-8.99 17.2-5.74 34.83-10.33.59-.15.14-.54l-11.81-10.28q1.27-2.87 1.44-5.84.14-2.3 1.21-.87.91 1.21.82.22-.03-.4-.54-.62a1.38.52 72.8 0 1-.59-.76l-.98-2.21q8.97 8.1 15.44 18.38a.73.72 47.8 0 0 1.18.06l15.17-19.15Z"/><path d="M325.8 276.74a1.43 1.36 13.6 0 1-.8-1.24v-19.75q0-.89.67-.33c13.22 11.02 32.12 15.74 48.9 11.7 8.32-2 13.89-7.4 15.52-15.98 7.57-40.02-71.94-36.62-64.37-88.26 4.64-31.7 37.81-37.4 64.53-33.36q6.91 1.05 12.56 3.98a.86.82-76.9 0 1 .44.75V153a.44.39 6.1 0 1-.52.37c-1.22-.25-1.87-1.35-2.71-1.83-14.77-8.46-47.03-13.06-54.66 8.41-3.29 9.29-.17 20.29 7.45 26.71 17.7 14.91 47.23 21.98 55.09 46.53q3.46 10.82.39 21.84c-9.79 35.14-56.2 34.6-82.49 21.71Zm186.65 6.06 34.52 35.98q.68.72-.22.72h-23.5a1.21 1.04-17.5 0 1-.87-.37l-28.94-33.57a1.27 1.25 70.2 0 0-.9-.43c-52.67-2.08-75.22-45.97-68.29-93.4 4.71-32.15 23.82-56.22 56.67-62.12 43.63-7.83 79.59 17.49 84.56 61.9 4.41 39.4-9.47 81.38-52.82 90.96q-.44.1-.21.33Zm-68.7-57.8c5.95 29.89 30.7 48.34 61.26 42.77 25.28-4.6 38.75-23.93 41.72-48.53 3.9-32.33-5.75-69.41-43.71-74.36-14.86-1.94-29.76 1.7-41.1 11.8-19.08 16.99-23.02 43.96-18.17 68.32Zm265.52 51.58a.99.91 15.2 0 1-.52-.83v-20q0-.58.61-.11 13.36 10.32 30.13 12.58c15.21 2.04 33.91-1.84 34.71-20.7.58-13.78-9.4-21.95-20.56-28.72-21.21-12.87-48.98-25.5-44.41-55.8 2.97-19.66 19.31-31.82 38.21-34.12 11.9-1.45 27.36-.92 38.7 4.34a.94.41 20.8 0 1 .6.59l.01 19.19q.01.57-.66.14-15.26-10-34.15-8.43c-14.74 1.23-26.35 11-23.93 26.85 1.71 11.27 10.6 17.58 20.22 23.22 22 12.9 50.58 26.25 44.06 58.23-7.38 36.2-57.18 37.82-83.02 23.57ZM668 266.54v15.17a.54.54 0 0 1-.54.54h-77.67a.54.54 0 0 1-.54-.54V131.29a.54.54 0 0 1 .54-.54h16.92a.54.54 0 0 1 .54.54v134.17a.54.54 0 0 0 .54.54h59.67a.54.54 0 0 1 .54.54Z"/><path fill="#f84038" d="M158.42 141.26q-10.69 13.17-23.63 24.24l-4.04-.29q13.67-16.19 26.25-33.25.55.56 1.11.11a.34.31-29.7 0 1 .52.11q.83 2.38.71 4.8-.11 2.25-.92 4.28Z"/><path fill="#bb0319" d="M245.55 135.17q.48 3.42-.76 6.58l-22.24 5.57q1.13-1.11-.2-1.58a.52.5 17.2 0 1-.34-.61q.73-2.76-.95-4.9l24.49-5.06Z"/><path fill="#f21815" d="M93.5 145.46q.8.33.41 1.16a1.08.74-53.1 0 0-.04.87q1.1 2.01 3.21 1.77-2.75 6.83-6.88 12.94a.48.34-56.3 0 0 .02.6q.21.14.49-.09 5.88-4.89 9.25-7.21.47 2.4 2.08 4.25l-19.79 14.04-3.29-2.79q8.68-11.97 14.54-25.54Z"/><path fill="#f52721" d="M165.48 155.69q-.24 4.92-3.35 8.99l-17.39 6.1q-2.9.25-5.24 1.93l-1.25.08-5.99 2.58-12.01 4.17-5.71-2.22a1.77.88 7.6 0 1-.78-.53l-1.3-1.79 10.88-4.51a.75.58-16.7 0 0 .48-.67l-.53-3.57q2.24 2.2 4.42-.25l.14 1.78q.04.63.5.12l2.4-2.69 4.04.29-.25.5q-.22.42.24.26l30.7-10.57Z"/><path fill="#efefee" d="M179.25 159.54q5 28.83 1.96 57.96-3.57.02-5.45-1.56-.91-.77-1.23-.23-.24.4-.4.05-.22-.48-.17-1.01l.48-18.44q.02-.49-.4-.21l-16.5 10.9q-1.33-1.53-1.79-3.46 9.18-5.04 17.81-11.01a.32.32 0 0 0-.05-.55q-17.48-8.6-34.01-19.27 2.34-1.68 5.24-1.93 14.1 10.31 29.26 18.42a.28.28 0 0 0 .42-.26q-.41-13.55-2.46-26.94 3.46-1.74 7.29-2.46Z"/><path fill="#f52721" d="m107.79 163.5-5.79 6.04q-2.47-.21-3.73-2.64l5.23-5.44 1.01-.4a.51.23 52.2 0 1 .43.23l1.28 1.48a1 .2-15.1 0 0 .92-.06q.64-.15.65.79Z"/><path fill="#d00716" d="M98.27 166.9q1.26 2.43 3.73 2.64-11.28 10.67-23.79 19.86-.55.4.07.12l6.97-3.23q1.16.25 1.57 1.31a1.32.71 78.9 0 0 .6.73q2.25.85 1.21 3.09-.23.5.33.29.89-.33 1.79-.17l-.29.46q-14.36 5.61-27.75 13.25-4.62 1.62-8.75 4.25l-7.17 3.75-3.29-3.79Q63.09 191.93 78.96 171l3.29 2.79-13.35 16.03q-.29.34.09.1 15.79-9.93 29.28-23.02Z"/><path d="M1283.16 181.75a11.13 11.13 0 0 1-11.13 11.13 11.13 11.13 0 0 1-11.13-11.13 11.13 11.13 0 0 1 11.13-11.13 11.13 11.13 0 0 1 11.13 11.13Zm-1.57.03a9.57 9.57 0 0 0-9.57-9.57 9.57 9.57 0 0 0-9.57 9.57 9.57 9.57 0 0 0 9.57 9.57 9.57 9.57 0 0 0 9.57-9.57ZM846 284.27c-33.73-4.51-43.3-39.44-39.05-67.79 4.5-30.01 29.88-50.6 60.62-43.73 28.22 6.32 34.35 34.37 32.79 59.2a.61.59 2 0 1-.61.55H825a.69.57 0 0 0-.69.57c.22 40.9 41.99 45.18 68 25.36q.7-.53.7.07l-.02 15.69a1.05.33-31.1 0 1-.58.66c-13.1 9.01-30.74 11.51-46.41 9.42Zm17.54-96.8c-20.38-5.66-36.68 10.81-38.91 29.86a.38.37-86.6 0 0 .37.42h56.75a.61.57 1 0 0 .61-.55c.5-13.05-5.49-26.04-18.82-29.73Zm240.01 45.58c-.47 40.8 42.25 45.21 67.83 25.26q.61-.47.61.25L1172 274a1.06.78-22.6 0 1-.45.75c-10.87 7.66-23.99 10.21-37.1 10.17-26.36-.07-42.9-15.14-47.85-40.44-4.38-22.4.3-48.65 19.58-63.36q14.37-10.97 32.66-9.6c34.03 2.54 42.03 31.62 40.86 60.5a.49.45-89.4 0 1-.45.48H1104a.56.45-89.4 0 0-.45.55Zm58.04-15.86c.08-43.44-53.32-38.66-57.74.03a.48.41-86.3 0 0 .4.53H1161a.59.57.5 0 0 .59-.56Zm-224.92-21.25c.05-.02.34-.31.37-.38 5.86-17.05 19.37-27.28 38.13-22.09a.77.47 11.3 0 1 .58.53v17a.45.39-78.7 0 1-.56.44c-24.06-11.81-38 11.1-38.37 31.57q-.53 28.86-.25 58.34a.89.82 89.7 0 1-.82.9H919.5a.75.5 90 0 1-.5-.75V174.31a.31.3 0 0 1 .31-.3L936 174a.74.52-89.5 0 1 .52.75l-.07 20.75a.4.18 87.6 0 0 .22.44Zm279.59-.48c5.59-16.84 19.44-27.11 37.79-22.08a.92.54 11.3 0 1 .7.62v17a.44.38 15.6 0 1-.63.3q-9.09-4.68-17.83-2.22c-15.87 4.47-20.48 23.51-20.51 37.65q-.07 27.51-.02 55.03a.48.32-90 0 1-.32.48l-16.69.01a.75.5 90 0 1-.5-.75v-107a.5.5 0 0 1 .5-.5h16.5a.64.39 88.7 0 1 .4.62c.05 2.01-.01 21.08.29 21.11a.38.3-78 0 0 .32-.27Z"/><path fill="#e1e2e1" d="M138.25 172.79c.88 12.91-1.68 27.65-5.47 40.73q-.33 1.14.72.64l22.25-10.62q.46 1.93 1.79 3.46-11.01 6.9-22.62 12.73a.34.29 46.1 0 0 .03.55q16.56 11.04 35.57 16.91a.59.52 12.4 0 0 .75-.42l2.69-22.02q-.05.53.17 1.01.16.35.4-.05.32-.54 1.23.23 1.88 1.58 5.45 1.56-1.63 23.16-8.03 45.6-4.39-.87-8.18.36l5.01-19.63q.35-1.37-.94-.68L159 248.54q-.39-.98-1.29-1.41a.92.72-50.3 0 0-.9.2q-.23.21-.58-.07-.39-.32.28-.48.58-.15.24-.74l12.73-5.94q1.35-.63-.13-.99c-12.51-3.12-24.56-7.39-35.32-13.54q-1.81-1.04-3.77-1.88a.47.46-68.1 0 0-.62.27L124.71 237q-.56.45-1.16.4c-1.21-.1-2.86-2.28-5.3-2.44l3.26-8.43q.18-.47-.28-.29l-8.94 3.51-1.6-.12a.92.78 77.1 0 1-.7-.52q-1.39-2.89-4.49-3.9l16.84-6.45a.33.32-32.3 0 0 .13-.53c-9.52-9.43-16.86-16.96-22.01-30.48q2.45-1.59 5.29-2.21 6.21 16.75 20.11 27.9a.36.36 0 0 0 .56-.16q6.54-18.23 5.84-37.91l5.99-2.58Z"/><path d="M1030.87 266.79q.24 0 .29-.3c.68-4.22 1.45-8.34 2.94-12.46q14.35-39.81 28.98-79.53a.76.69-79.3 0 1 .67-.5H1081a.41.38-79.4 0 1 .35.55q-2.96 8.1-6.16 16.07-18.23 45.49-36.38 91.01a.99.82-77 0 1-.81.62h-16.25a1.11.74 75.5 0 1-.81-.73L980.49 174.5a.36.35 79.5 0 1 .32-.49l18.44-.01a.82.66 78.6 0 1 .67.56q13.91 39.62 27.71 79.27 1.85 5.31 2.89 12.54a.5.36 85.7 0 0 .35.42Zm238.95-83.61-.1 4.32a1.16.11-88.5 0 1-.14 1.14l-1.58.14a.76.46 88.5 0 1-.5-.78v-12.75a.7.66-5.1 0 1 .58-.66c2.5-.4 7.3-.49 8.49 2.38 1.33 3.18-1 3.31-2.13 5.3a.84.71 43.2 0 0 .1.85c.6.79 4.8 7.02.67 5.54a1.18 1.06 86.3 0 1-.65-.64c-.7-1.6-1.88-5.19-4-5.24a.74.41.9 0 0-.74.4Zm4.54-3.56q1.33-1.8-.63-2.63-5.36-2.28-3.81 3.44a.81.68 1.2 0 0 .58.51q2.46.57 3.86-1.32Z"/><path fill="#e60c10" d="m112.46 175 1.3 1.79a1.77.88 7.6 0 0 .78.53l5.71 2.22-14.5 6q-2.84.62-5.29 2.21l-1.71.54-8 3.25q-.9-.16-1.79.17-.56.21-.33-.29 1.04-2.24-1.21-3.09a1.32.71 78.9 0 1-.6-.73q-.41-1.06-1.57-1.31 13.4-6.13 27.21-11.29Z"/><path fill="#d6d7d6" d="M98.75 188.29q-5.77 16.6-14.25 32l-2.18 1.83a.36.33-34.6 0 1-.54-.07q-1.54-2.89-4.57-4.3Q84.4 205.16 90.46 192l.29-.46 8-3.25Z"/><path fill="#bbbdbe" d="M62.71 205.25q-4.02 15.4 3.35 29.48.35.66.74.02l10.41-17q3.03 1.41 4.57 4.3a.36.33-34.6 0 0 .54.07l2.18-1.83-7.97 13.99q-.37.65.32.42l9.65-3.16 5.04 5.71-19.32 5.83a.37.37 0 0 0-.2.56c6.51 9.45 18.19 17.91 28.05 23.67a.82.77 40.9 0 0 .86-.03q1.31-.96 1.86-2.53 4.92 1.91 7.85 6.17-.85.2-1.32.7a.43.38 32.8 0 0 .18.64q22.81 10.28 47.5 14.51a.86.78 13.6 0 0 .95-.52l1.84-5.75q.48.61.15 1.36a.79.22 46.4 0 0 .34.63q.38.41.21 1.01a.6.23 13.4 0 0 .54.37l3.06.72a.66.37 16.8 0 0 .65-.14q.46-.84.97-.2-5.79 15.37-13.25 30-2.57 1.54-3.75-1.25l7.38-21q.44-1.24-.75-.66-10.51 5.11-21.55 8.91-1.21-1.67-3.2-2.32a.27.22-63.2 0 1-.09-.38q.15-.22 0-.51l24.71-7.73a.39.29-12.1 0 0 .29-.33q-.01-.2-.25-.23-25.99-2.44-50.2-11.95a.96.92-62.1 0 0-1.12.37l-3.43 5.12q-2.42-2.65-6.16-3.36.71-.84.76-1.44a.46.36-7.7 0 0-.58-.34l-18.73 5.35q-2.2-1.74-3.13-4.54l19.01-7.01q.66-.24.15-.52-14.93-8.12-25.95-21.05a.5.49 45.1 0 0-.75-.01l-7.88 9.27q-1.74-.75-3.27-1.57-.83-.45-1.51-1.07l6.03-9.07q.3-.45-.22-.33l-9.02 2.11-4.25-4.17 13.84-4.21a.35.34-23.9 0 0 .2-.51q-8.55-13.96-5.08-30.32 4.13-2.63 8.75-4.25Z"/><path fill="#a1001d" d="m43.5 209.46 3.29 3.79-13.57 7.97-8.72 4.49 19-16.25Z"/><path fill="#8c9197" d="M33.22 221.22c-10.7 9.56-18.95 18.01-22.98 32.14q-.32 1.15.82.83L26 250.04q.45 2.14 2.25 3.42l-17.22 4.18a1.04 1.02-11 0 0-.79 1.15c1.75 11.67 10.48 22.07 19.52 29.09a.38.37-53.4 0 0 .53-.09l12.46-18.08 3.5 2.08-12.99 17.32a1.25 1.16-32.8 0 0-.23.91q.28 1.73 1.92 1.19 6.09-2.01 37.71-13.25.93 2.8 3.13 4.54L38.3 292.85q-1.5.41-.27 1.16 17.11 10.43 36.51 15.63a.69.63-65.7 0 0 .72-.31l11.95-19.08 4.34 2.27a1.32.96 43.2 0 0 .94.12l1.01-.35-14.19 18.08a.43.39-56.5 0 0 .1.63c2.14 1.07 20.54-4.98 24.09-5.96q-1.48 1.25.06 2.9.73.17.23.81l-14.06 3.32q-3.2.76.02 1.36 27.7 5.16 54.04 8.82 1.49-.03 1.91 2.92-36.35-1.68-65.39-7.99-17.32-3.76-33.88-10.09c-17.89-6.82-48.89-24.97-45.4-47.97 1.89-12.5 13.69-25.95 23.47-33.41l8.72-4.49Z"/><path fill="#cecece" d="M105.5 225.21q3.1 1.01 4.49 3.9a.92.78 77.1 0 0 .7.52l1.6.12q-10.14 4.4-20.75 7.5l-5.04-5.71 19-6.33Zm12.75 9.75c2.44.16 4.09 2.34 5.3 2.44q.6.05 1.16-.4-5.32 13.43-12.44 26.03-.41.72.37.44 22.24-8.06 44.11-17.43.34.59-.24.74-.67.16-.28.48.35.28.58.07a.92.72-50.3 0 1 .9-.2q.9.43 1.29 1.41-23.89 12.17-48.36 22.38-2.93-4.26-7.85-6.17 8.33-14.59 15.46-29.79Z"/><path fill="#9fa2a7" d="m45 244.54 4.25 4.17-21 4.75q-1.8-1.28-2.25-3.42l19-5.5ZM52.46 256q.68.62 1.51 1.07 1.53.82 3.27 1.57l-10.99 13.15-3.5-2.08L52.46 256Z"/><path fill="#cecece" d="M173.18 263.1q-3.24 10.68-7.47 21.15-.51-.64-.97.2a.66.37 16.8 0 1-.65.14l-3.06-.72a.6.23 13.4 0 1-.54-.37q.17-.6-.21-1.01a.79.22 46.4 0 1-.34-.63q.33-.75-.15-1.36l5.21-17.04q3.79-1.23 8.18-.36Z"/><path fill="#acaeb2" d="M94.34 278.93q3.74.71 6.16 3.36l-7 10-1.01.35a1.32.96 43.2 0 1-.94-.12l-4.34-2.27 7.13-11.32Zm36.16 18.11q.15.29 0 .51a.27.22-63.2 0 0 .09.38q1.99.65 3.2 2.32-14.68 5.36-30 8.5.5-.64-.23-.81-1.54-1.65-.06-2.9l27-8Z"/><path d="M184.56 314.2a11.13 11.13 0 0 1-11.13 11.13 11.13 11.13 0 0 1-11.13-11.13 11.13 11.13 0 0 1 11.13-11.13 11.13 11.13 0 0 1 11.13 11.13Zm-1.59.05a9.56 9.56 0 0 0-9.56-9.56 9.56 9.56 0 0 0-9.56 9.56 9.56 9.56 0 0 0 9.56 9.56 9.56 9.56 0 0 0 9.56-9.56Z"/><path d="M171.25 315.75v4.5a.97.93-19 0 1-.39.76c-1.15.86-1.85.06-1.86-1.14q-.06-6.12.07-12.22a.57.56-2.3 0 1 .51-.55c3.62-.4 11.98.23 7.71 6.48q-.02.02-.79.42l-.82.42a.96.16 62.5 0 0 .3.93l2.57 4.87a.63.62-17.3 0 1-.48.91l-1.32.15a1.09.41 67.2 0 1-.71-.75c-1.09-2.3-2.05-5.44-4.23-5.29a.6.5-2.4 0 0-.56.51Zm3.24-2.65c3.71-1.8.34-4.7-2.55-4.04a.79.77 89.5 0 0-.59.61q-1.14 5.51 3.14 3.43Z"/><path fill="#9fa2a7" d="M148.71 313q1.18 2.79 3.75 1.25-2.18 6.3-6.76 10.92-.42-2.95-1.91-2.92l.65-.04a.79.77-80 0 0 .69-.49l3.58-8.72Z"/></svg>